<svg xmlns="http://www.w3.org/2000/svg" xmlns:xlink="http://www.w3.org/1999/xlink" id="Layer_1" x="0px" y="0px" viewBox="0 0 510.2 127.6" style="enable-background:new 0 0 510.2 127.6;" xml:space="preserve"><style type="text/css">	.st0{fill:#010101;stroke:#010101;stroke-width:4;stroke-miterlimit:10;}	.st1{fill:#E3212F;stroke:#E3212F;stroke-width:4;stroke-miterlimit:10;}	.st2{fill:#FFFFFF;}	.st3{fill:#010101;stroke:#FFFFFF;stroke-width:12;stroke-miterlimit:10;}</style><polygon class="st0" points="503,104.6 203.4,117.9 203.4,22.9 503,9.6 "></polygon><polygon class="st0" points="503,104.6 203.4,117.9 203.4,22.9 503,9.6 "></polygon><polygon class="st1" points="202,109 2,117 2,22 202,14 "></polygon><path class="st2" d="M34.4,100.4c0,0.1-0.1,0.3-0.2,0.3c0,0,0,0-0.1,0l-17.4,0.8c-0.1,0-0.3-0.1-0.3-0.2c0,0,0,0,0-0.1V36.7 c0-0.1,0.1-0.3,0.2-0.3c0,0,0,0,0.1,0l30.4-1.3C54.7,34.7,68,38.5,68,55.2C68,64,64.2,70,58,73.7c1.3,2.4,6,11.2,9.7,18.3 c1.2,2.3,2.6,4.5,4.2,6.5c0.3,0.3,0.2,0.5-0.2,0.6l-20.2,0.9c-0.2,0-0.4-0.1-0.5-0.3l-9.8-20.8L34.4,79L34.4,100.4L34.4,100.4z  M43.9,49.9l-9.4,0.4v13.5l8.3-0.4c4.5-0.2,7.8-2.5,7.8-7.2c0.2-3.3-2.3-6.2-5.6-6.4C44.7,49.9,44.3,49.9,43.9,49.9L43.9,49.9z"></path><path class="st2" d="M125.5,80.8c0.1,0,0.3,0.1,0.3,0.2c0,0,0,0,0,0.1v15.3c0,0.1-0.1,0.3-0.2,0.3c0,0,0,0-0.1,0l-48.3,2.1 c-0.1,0-0.3-0.1-0.3-0.2c0,0,0,0,0-0.1V34c0-0.1,0.1-0.3,0.2-0.3c0,0,0,0,0.1,0l46.6-2c0.1,0,0.3,0.1,0.3,0.2c0,0,0,0,0,0.1v15 c0,0.1-0.1,0.3-0.2,0.3c0,0,0,0-0.1,0l-28.8,1.5v9.8l19.3-0.6c0.1,0,0.3,0.1,0.3,0.2c0,0,0,0,0,0.1v13.8c0,0.1-0.1,0.3-0.2,0.3 c0,0,0,0-0.1,0l-19.3,1.1v8.8L125.5,80.8z"></path><path class="st2" d="M161.7,95.1l-28.1,1.2c-0.1,0-0.3-0.1-0.3-0.2c0,0,0,0,0-0.1V31.6c0-0.1,0.1-0.3,0.2-0.3c0,0,0,0,0.1,0 l26.6-1.1c5-0.3,10.1,0.4,14.8,2.1c9.7,3.9,17.3,13,17.3,29.8C192.2,84.1,175,94.5,161.7,95.1z M166.8,47.7c-2.8-1.3-5.9-1.8-9-1.6 l-6.2,0.3v33.5l8.8-0.4c5.9-0.3,13.5-5.1,13.5-17.3C174,54.6,171.4,49.9,166.8,47.7L166.8,47.7z"></path><polygon class="st3" points="503,104 203.4,117.3 203.4,22.3 503,9 "></polygon><polygon class="st0" points="503,104.1 203.4,117.4 203.4,22.4 503,9.1 "></polygon><path class="st2" d="M232.7,101.1L210,37.6c-0.1-0.2,0.1-0.4,0.3-0.4l19.1-0.8c0.1,0,0.3,0.1,0.3,0.2l11.9,34.5l11.1-35.5 c0-0.1,0.2-0.2,0.3-0.2l12.1-0.5c0.1,0,0.2,0.1,0.3,0.2l12.1,35.1l13.6-36.2c0.1-0.1,0.2-0.2,0.3-0.2l17.7-0.8 c0.2,0,0.4,0.2,0.3,0.4l-24.7,65.5c-0.1,0.2-0.2,0.3-0.3,0.3l-13.1,0.6c-0.1,0-0.3-0.1-0.3-0.2l-12.4-34.3l-11.6,35.3 c0,0.3-0.2,0.3-0.3,0.3l-13.9,0.6C232.8,101.3,232.7,101.3,232.7,101.1z"></path><path class="st2" d="M309.2,65.7c0-20.4,17.1-34.9,35.8-35.7c19.8-0.9,35.7,12.7,35.7,32.6c0,18.5-15.6,34.3-35.7,35.1 C323.7,98.6,309.2,83.1,309.2,65.7z M328.6,64.8c0,9.1,6,17.5,16.4,17s16.3-9,16.3-18.5c0-9.9-6.5-17.7-16.3-17.3 C334.8,46.5,328.6,54.7,328.6,64.8z"></path><path class="st2" d="M438.3,75.9c0.1,0,0.3,0.1,0.3,0.2c0,0,0,0,0,0.1V92c0,0.1-0.1,0.3-0.2,0.3c0,0,0,0-0.1,0l-48.6,2.1 c-0.1,0-0.2-0.1-0.3-0.2c0,0,0-0.1,0-0.1V29.7c0-0.1,0.1-0.3,0.2-0.3c0,0,0,0,0,0l17.9-0.8c0.1,0,0.3,0.1,0.3,0.2c0,0,0,0,0,0.1 v48.3L438.3,75.9z"></path><path class="st2" d="M484.5,54.3c0.1,0,0.3,0.1,0.3,0.2c0,0,0,0,0,0.1v14.6c0,0.1-0.1,0.3-0.2,0.3c0,0,0,0-0.1,0l-18.3,1v20.4 c0,0.1-0.1,0.3-0.2,0.3c0,0,0,0-0.1,0l-17.9,0.8c-0.1,0-0.3-0.1-0.3-0.2c0,0,0,0,0-0.1V27.1c0-0.1,0.1-0.3,0.2-0.3c0,0,0,0,0.1,0 l47.4-2.1c0.1,0,0.3,0.1,0.3,0.2c0,0,0,0,0,0.1v15c0,0.1-0.1,0.3-0.2,0.3c0,0,0,0-0.1,0l-29.3,1.5v13L484.5,54.3z"></path></svg>