<svg xmlns="http://www.w3.org/2000/svg" width="266" height="60" viewBox="0 0 266 60" fill="none"><path d="M78.9631 10.5608H70.5945C70.4152 10.5608 70.2956 10.7108 70.2956 10.8608V34.7408C70.2956 34.9208 70.1462 35.0408 69.9968 35.0408H64.5871C64.4078 35.0408 64.2882 34.8908 64.2882 34.7408V10.8608C64.2882 10.6808 64.1388 10.5608 63.9894 10.5608H56.7267C56.5772 10.5608 56.4577 10.4708 56.4278 10.3208L55.5312 6.03078C55.5013 5.85078 55.6208 5.67078 55.83 5.67078H78.9929C79.1723 5.67078 79.2918 5.82078 79.2918 5.97078V10.2608C79.2918 10.4108 79.1424 10.5608 78.9631 10.5608Z" fill="#2B3A67"></path><path d="M86.973 14.79C86.7937 15 86.973 15.06 86.973 14.79C88.4375 13.32 90.709 12.81 92.8011 12.81C97.5234 12.81 99.9144 15.57 99.9741 21.06V34.74C99.9741 34.92 99.8247 35.04 99.6753 35.04H94.4748C94.2955 35.04 94.1759 34.89 94.1759 34.74V21.24C94.1759 19.98 93.907 19.05 93.369 18.45C92.831 17.85 91.9344 17.55 90.6791 17.55C89.0054 17.55 87.78 18.18 87.0328 19.44C87.0029 19.5 87.0029 19.56 87.0029 19.62V34.74C87.0029 34.92 86.8535 35.04 86.704 35.04H81.5036C81.3243 35.04 81.2047 34.89 81.2047 34.74V7.14003C81.2047 6.99003 81.2944 6.87003 81.4438 6.84003L86.6443 5.73003C86.8236 5.70003 87.0029 5.82003 87.0029 6.03003L86.973 14.79Z" fill="#2B3A67"></path><path d="M161.692 12.9C161.692 13.08 161.842 13.2 161.991 13.2H167.281C167.49 13.2 167.61 13.38 167.58 13.56L166.653 18.66C166.624 18.81 166.504 18.93 166.355 18.93H161.991C161.812 18.93 161.692 19.08 161.692 19.23V28.38C161.692 29.19 161.842 29.76 162.14 30.12C162.439 30.48 163.037 30.66 163.904 30.66C164.412 30.66 164.86 30.63 165.279 30.57C165.458 30.54 165.637 30.69 165.637 30.87V34.71C165.637 34.86 165.548 34.98 165.428 35.01C164.352 35.31 163.246 35.46 162.14 35.46C158.076 35.46 155.984 33.39 155.894 29.25V19.23C155.894 19.05 155.744 18.93 155.595 18.93H153.025C152.845 18.93 152.726 18.78 152.726 18.63V13.53C152.726 13.35 152.875 13.23 153.025 13.23H155.595C155.774 13.23 155.894 13.08 155.894 12.93V6.96004C155.894 6.81004 156.013 6.69004 156.163 6.66004L161.363 5.73004C161.543 5.70004 161.722 5.85004 161.722 6.03004V12.9H161.692Z" fill="#2B3A67"></path><path d="M170.27 34.7708V5.97078C170.27 5.79078 170.419 5.67078 170.569 5.67078H178.519C181.059 5.67078 183.331 6.24078 185.273 7.35078C187.216 8.49078 188.74 10.0808 189.816 12.1808C190.892 14.2808 191.43 16.6808 191.43 19.3808V21.2708C191.43 24.0308 190.892 26.4608 189.846 28.5608C188.77 30.6608 187.246 32.2508 185.273 33.3608C183.301 34.4708 180.999 35.0408 178.369 35.0708H170.569C170.389 35.0708 170.24 34.9208 170.27 34.7708ZM174.125 9.15078V31.5908C174.125 31.7708 174.275 31.8908 174.424 31.8908H178.19C181.179 31.8908 183.48 30.9608 185.154 29.1008C186.798 27.2408 187.635 24.6008 187.635 21.1508V19.4408C187.635 16.1108 186.857 13.5008 185.273 11.6408C183.719 9.78078 181.508 8.85078 178.608 8.82078H174.424C174.245 8.82078 174.125 8.97078 174.125 9.15078Z" fill="#2B3A67"></path><path d="M193.044 23.94C193.044 21.81 193.463 19.86 194.299 18.15C195.136 16.44 196.302 15.12 197.796 14.19C199.291 13.26 200.994 12.78 202.907 12.78C205.866 12.78 208.287 13.8 210.11 15.87C211.933 17.94 212.86 20.67 212.86 24.09V24.36C212.86 26.49 212.441 28.41 211.634 30.09C210.827 31.77 209.662 33.09 208.137 34.05C206.643 34.98 204.91 35.46 202.937 35.46C199.978 35.46 197.587 34.44 195.764 32.37C193.941 30.3 193.014 27.57 193.014 24.18L193.044 23.94ZM196.78 24.39C196.78 26.82 197.348 28.77 198.454 30.24C199.59 31.71 201.084 32.43 202.937 32.43C204.79 32.43 206.344 31.68 207.45 30.21C208.556 28.71 209.124 26.64 209.124 23.97C209.124 21.57 208.556 19.62 207.42 18.15C206.284 16.65 204.79 15.93 202.907 15.93C201.024 15.93 199.59 16.68 198.454 18.12C197.348 19.56 196.78 21.66 196.78 24.39Z" fill="#2B3A67"></path><path d="M233.572 28.86L237.427 13.47C237.457 13.32 237.577 13.23 237.726 13.23H240.805C241.014 13.23 241.163 13.44 241.104 13.62L234.947 34.86C234.917 34.98 234.797 35.07 234.648 35.07H232.078C231.928 35.07 231.809 34.98 231.779 34.86L226.847 19.44C226.758 19.14 226.339 19.14 226.249 19.44L221.467 34.86C221.438 34.98 221.318 35.07 221.169 35.07H218.598C218.449 35.07 218.329 34.98 218.299 34.86L212.172 13.62C212.113 13.41 212.262 13.23 212.471 13.23H215.52C215.669 13.23 215.789 13.32 215.819 13.47L219.764 28.56C219.853 28.86 220.272 28.86 220.362 28.56L225.054 13.44C225.084 13.32 225.203 13.23 225.353 13.23H227.893C228.043 13.23 228.162 13.32 228.192 13.44L232.974 28.86C233.064 29.16 233.512 29.16 233.572 28.86Z" fill="#2B3A67"></path><path d="M246.693 13.4999L246.752 15.1799C246.752 15.4499 247.111 15.5699 247.29 15.3899C248.874 13.6799 250.877 12.8099 253.298 12.8099C257.9 12.8099 260.232 15.4199 260.262 20.6399V34.7699C260.262 34.9499 260.112 35.0699 259.963 35.0699H256.854C256.675 35.0699 256.555 34.9199 256.555 34.7699V20.6099C256.526 19.0199 256.197 17.8799 255.479 17.0999C254.762 16.3499 253.686 15.9599 252.192 15.9599C250.996 15.9599 249.92 16.2899 249.024 16.9199C248.127 17.5499 247.44 18.3899 246.932 19.4099C246.902 19.4399 246.902 19.4999 246.902 19.5599V34.7399C246.902 34.9199 246.752 35.0399 246.603 35.0399H243.495C243.315 35.0399 243.196 34.8899 243.196 34.7399V13.5299C243.196 13.3499 243.345 13.2299 243.495 13.2299H246.424C246.543 13.1999 246.693 13.3499 246.693 13.4999Z" fill="#2B3A67"></path><path d="M128.696 13.47C127.56 12.99 126.096 12.66 124.213 12.66C122.091 12.66 120.477 13.02 119.192 13.62C116.233 15.09 115.277 17.94 115.277 21.09V26.88C115.277 32.01 117.518 35.13 123.974 35.28H125.498C127.262 35.28 129.085 35.1 130.758 34.86C130.938 34.8 131.117 34.62 131.057 34.44V34.26L130.639 31.29C128.995 31.47 127.56 31.53 125.917 31.53C121.942 31.53 120.716 30.39 120.716 27.93V26.19H132.402C132.641 26.19 132.761 26.01 132.761 25.83V21.48C132.671 17.97 131.864 14.85 128.696 13.47ZM127.889 22.11C127.889 22.35 127.71 22.47 127.531 22.47H120.626V20.58C120.626 18.51 121.523 17.13 124.213 17.13C124.512 17.13 124.811 17.13 125.11 17.19C127.112 17.49 127.889 18.84 127.889 20.61V22.11Z" fill="#2B3A67"></path><path d="M141.189 12.66C139.276 12.66 137.244 12.81 135.301 13.11C135.122 13.17 134.913 13.35 135.002 13.56L135.451 16.92C135.511 17.1 135.63 17.31 135.899 17.31C137.692 17.13 138.858 17.07 140.681 17.07C144.746 17.07 146.001 18.24 146.001 20.76V22.26C146.001 22.5 145.822 22.65 145.613 22.65H140.472C135.959 22.65 133.299 24.93 133.299 29.1C133.299 32.94 136.258 35.7 140.741 35.7C143.55 35.7 144.656 35.25 145.583 34.38C145.822 34.14 146.27 34.32 146.27 34.62V34.92C146.27 35.16 146.449 35.31 146.659 35.31H151.172C151.411 35.31 151.56 35.13 151.56 34.92V20.88C151.62 15.33 147.705 12.66 141.189 12.66ZM146.031 27.06C146.031 29.85 144.178 31.71 141.189 31.71C138.918 31.71 137.722 30.84 137.722 29.04C137.722 27.06 138.977 26.25 141.189 26.25H145.583C145.822 26.25 145.971 26.43 145.971 26.64V27.06H146.031Z" fill="#2B3A67"></path><path d="M113.991 17.76C111.989 18.63 110.375 19.59 108.552 20.76C108.402 20.82 108.373 20.94 108.373 21.06V34.92C108.373 35.16 108.193 35.31 107.984 35.31H103.172C102.933 35.31 102.784 35.13 102.784 34.92V14.07C102.784 13.89 102.933 13.68 103.082 13.68L107.087 12.99C107.326 12.93 107.536 13.14 107.536 13.29L107.715 14.73C107.775 15.03 108.104 15.18 108.343 14.97C109.598 14.13 111.6 13.11 113.214 12.51C113.453 12.45 113.693 12.57 113.693 12.81L114.141 17.22C114.231 17.49 114.111 17.64 113.991 17.76Z" fill="#2B3A67"></path><path d="M203.709 45.6136L203.674 45.6489V41.8725C203.674 41.7666 203.603 41.6961 203.498 41.7313L202.443 41.9078C202.373 41.9078 202.338 41.9784 202.338 42.049V53.0958C202.338 53.1664 202.373 53.2369 202.443 53.2369C203.357 53.4487 204.518 53.5193 205.256 53.5193C208.315 53.5193 208.737 52.0723 208.737 50.4841V47.59C208.737 45.9312 207.928 45.0842 206.346 45.0842C205.186 45.0489 204.236 45.3313 203.709 45.6136ZM207.366 47.5194V50.5194C207.366 51.6487 207.014 52.3193 205.362 52.3193C204.799 52.3193 204.272 52.284 203.709 52.2134H203.674V46.8489H203.709C204.201 46.6018 205.221 46.2136 205.994 46.2136C206.944 46.2136 207.366 46.6018 207.366 47.5194Z" fill="#2B3A67"></path><path d="M210.495 45.1901H209.475C209.37 45.1901 209.299 45.2959 209.335 45.3665L211.901 53.2016C211.937 53.2722 211.972 53.3075 212.042 53.3075H212.358C212.464 53.3075 212.534 53.4134 212.499 53.484L211.479 56.4133C211.444 56.5192 211.515 56.5898 211.62 56.5898H212.569C212.64 56.5898 212.675 56.5545 212.71 56.4839L213.835 53.3075L216.507 45.3665C216.543 45.2606 216.472 45.1901 216.367 45.1901H215.347C215.277 45.1901 215.242 45.2254 215.206 45.2959L213.062 51.8958C213.026 52.037 212.816 52.037 212.78 51.8958L210.671 45.2959C210.6 45.2607 210.565 45.1901 210.495 45.1901Z" fill="#2B3A67"></path><path d="M222.942 48.0488V50.484C222.942 52.531 223.962 53.4487 226.177 53.4487C227.126 53.4487 228.181 53.2722 228.919 53.0251C228.99 52.9898 229.025 52.9193 229.025 52.8487L228.884 52.0722C228.849 51.9663 228.779 51.9311 228.708 51.9663C227.794 52.2134 226.985 52.3193 226.282 52.3193C224.559 52.3193 224.278 51.7193 224.278 50.484V49.9193C224.278 49.8135 224.348 49.7782 224.419 49.7782H229.06C229.165 49.7782 229.201 49.7076 229.201 49.637V48.1194C229.201 46.0724 228.216 45.0842 226.106 45.0842C223.997 45.0489 222.942 46.0371 222.942 48.0488ZM224.278 47.9782C224.278 46.7077 224.876 46.1783 226.142 46.1783C227.407 46.1783 227.9 46.7077 227.9 47.9782V48.5429C227.9 48.6488 227.829 48.6841 227.759 48.6841H224.419C224.313 48.6841 224.278 48.6135 224.278 48.5429V47.9782Z" fill="#2B3A67"></path><path d="M233.068 48.6842C231.662 48.3312 231.627 48.1901 231.627 47.2371C231.627 46.4607 231.838 46.1783 233.068 46.1783C233.666 46.1783 234.475 46.2489 235.178 46.3901C235.283 46.4254 235.354 46.3548 235.354 46.2489L235.424 45.4372C235.424 45.3666 235.389 45.296 235.319 45.2607C234.651 45.0843 233.877 45.0137 233.139 45.0137C231.064 45.0137 230.326 45.6137 230.326 47.2019C230.326 48.8606 230.502 49.2842 232.541 49.7783C234.193 50.1665 234.299 50.2724 234.299 51.19C234.299 52.0723 234.088 52.3194 232.717 52.3194C232.084 52.3194 231.24 52.2135 230.537 52.037C230.431 52.0017 230.361 52.0723 230.361 52.1429L230.22 52.8841C230.185 52.9547 230.255 53.0252 230.326 53.0605C230.994 53.3076 232.014 53.4488 232.787 53.4488C235.178 53.4488 235.6 52.6723 235.6 51.1194C235.6 49.4253 235.283 49.2136 233.068 48.6842Z" fill="#2B3A67"></path><path d="M170.728 53.2369L169.251 45.3313C169.216 45.2254 169.286 45.1548 169.392 45.1548H171.044C171.114 45.1548 171.185 45.1901 171.185 45.2607L172.064 50.0253C172.099 50.2017 172.31 50.2017 172.345 50.0605L173.787 45.2607C173.822 45.1901 173.857 45.1548 173.927 45.1548H175.861C175.932 45.1548 175.967 45.1901 176.002 45.2607L177.443 50.0605C177.479 50.2017 177.69 50.2017 177.725 50.0253L178.604 45.2607C178.639 45.1901 178.674 45.1548 178.744 45.1548H180.397C180.503 45.1548 180.573 45.2607 180.538 45.3313L179.061 53.2369C179.026 53.3075 178.991 53.3428 178.92 53.3428H176.775C176.705 53.3428 176.67 53.3075 176.635 53.2369L175.053 47.9429C175.017 47.8018 174.806 47.8018 174.771 47.9429L173.189 53.2369C173.154 53.3075 173.119 53.3428 173.048 53.3428H170.904C170.798 53.3428 170.728 53.3075 170.728 53.2369Z" fill="#2B3A67"></path><path d="M168.337 51.8253C167.598 51.8253 167.352 51.5076 167.352 50.59V42.3314C167.352 42.2255 167.282 42.1549 167.177 42.1902L165.383 42.4373C165.313 42.4373 165.278 42.5079 165.278 42.5784V50.8018C165.278 52.637 166.403 53.484 167.95 53.484C168.126 53.484 168.653 53.4488 168.935 53.4488C169.005 53.4488 169.075 53.3782 169.075 53.3076V52.0017C169.075 51.8958 169.005 51.8606 168.899 51.8606C168.724 51.8253 168.442 51.8253 168.337 51.8253Z" fill="#2B3A67"></path><path d="M193.442 46.9195C192.703 47.2371 192.106 47.59 191.438 48.0136C191.402 48.0489 191.367 48.0842 191.367 48.1194V53.1664C191.367 53.2723 191.297 53.3076 191.227 53.3076H189.433C189.328 53.3076 189.293 53.237 189.293 53.1664V45.5783C189.293 45.5078 189.328 45.4372 189.398 45.4372L190.875 45.1901C190.98 45.1548 191.051 45.2254 191.051 45.296L191.121 45.8254C191.156 45.9313 191.262 46.0019 191.367 45.9313C191.824 45.6136 192.563 45.2607 193.16 45.0489C193.266 45.0136 193.336 45.0842 193.336 45.1548L193.512 46.7783C193.547 46.8489 193.512 46.8842 193.442 46.9195Z" fill="#2B3A67"></path><path d="M220.903 52.3547C220.059 52.3547 220.024 52.0017 220.024 51.437V46.4607C220.024 46.3548 220.094 46.3195 220.164 46.3195H222.098C222.168 46.3195 222.239 46.2842 222.239 46.1784L222.344 45.3666C222.344 45.2607 222.274 45.1901 222.204 45.1901H220.164C220.059 45.1901 220.024 45.1196 220.024 45.049V43.1784C220.024 43.0725 219.953 43.002 219.848 43.0373L218.793 43.2137C218.723 43.2137 218.687 43.2843 218.687 43.3549V45.0843C218.687 45.1901 218.617 45.2254 218.547 45.2254H217.386C217.281 45.2254 217.246 45.296 217.246 45.3666V46.1784C217.246 46.2842 217.316 46.3195 217.386 46.3195H218.547C218.652 46.3195 218.687 46.3901 218.687 46.4607V51.6488C218.687 52.9547 219.25 53.4841 220.692 53.4841C221.008 53.4841 221.325 53.4488 221.676 53.3782C221.746 53.3429 221.782 53.3076 221.782 53.237V52.4253C221.782 52.3194 221.676 52.2488 221.606 52.2841C221.36 52.3194 221.114 52.3547 220.903 52.3547Z" fill="#2B3A67"></path><path d="M199.454 45.2607C199.032 45.0843 198.47 44.9784 197.731 44.9784C196.923 44.9784 196.29 45.1196 195.798 45.3313C194.672 45.896 194.286 46.9548 194.286 48.1548V50.343C194.286 52.2488 195.13 53.4488 197.626 53.4841H198.189C198.857 53.4841 199.56 53.4135 200.193 53.3076C200.263 53.2723 200.333 53.2017 200.298 53.1311V53.0605L200.122 51.9312C199.489 52.0017 198.962 52.037 198.329 52.037C196.817 52.037 196.325 51.6135 196.325 50.6959V50.0253H200.79C200.896 50.0253 200.931 49.9547 200.931 49.8842V48.2607C200.966 46.9548 200.65 45.7548 199.454 45.2607ZM199.138 48.5077C199.138 48.6136 199.068 48.6489 198.997 48.6489H196.36V47.943C196.36 47.1666 196.712 46.6372 197.731 46.6372C197.837 46.6372 197.978 46.6372 198.083 46.6725C198.857 46.7783 199.138 47.3077 199.138 47.943V48.5077Z" fill="#2B3A67"></path><path d="M148.717 54.7192H148.752C148.858 54.7192 148.928 54.6486 148.928 54.5427C148.928 54.4722 148.893 54.3663 148.787 54.3663H148.752L148.647 54.331C146.783 53.9781 145.377 52.3193 145.377 50.3781C145.377 49.5664 145.623 48.7547 146.08 48.1547C146.15 48.0488 146.256 47.9782 146.396 48.1194L149.35 51.084C149.385 51.1193 149.42 51.1193 149.455 51.1193C149.49 51.1193 149.561 51.084 149.561 51.084L152.549 48.1194C152.655 48.0135 152.76 48.0135 152.831 48.1547C153.253 48.79 153.534 49.5664 153.534 50.3781C153.534 51.4017 153.147 52.3546 152.479 53.0604C152.444 53.0957 152.444 53.0957 152.409 53.131C152.409 53.1663 152.374 53.1663 152.374 53.2016C152.374 53.3075 152.444 53.3781 152.549 53.3781H152.585C152.62 53.3781 152.62 53.3428 152.655 53.3428C156.628 51.684 156.417 47.8017 156.417 47.8017C156.417 45.5783 155.362 43.6018 153.71 42.3313C153.639 42.296 153.534 42.296 153.464 42.3666L149.561 46.2488C149.49 46.3194 149.385 46.3194 149.315 46.2488L145.377 42.3666C145.306 42.296 145.201 42.296 145.13 42.3313C143.513 43.6018 142.458 45.543 142.458 47.8017C142.458 51.4369 145.166 54.3663 148.717 54.7192Z" fill="#2B3A67"></path><path d="M159.968 44.9784C159.23 44.9784 158.492 45.0137 157.753 45.1549C157.683 45.1902 157.613 45.2607 157.648 45.3313L157.824 46.5666C157.859 46.6372 157.894 46.7078 157.999 46.7078C158.667 46.6372 159.089 46.6019 159.793 46.6019C161.305 46.6019 161.797 47.0254 161.797 47.943V48.5077C161.797 48.6136 161.726 48.6489 161.656 48.6489H159.687C157.999 48.6489 157.015 49.4959 157.015 51.0135C157.015 52.4253 158.105 53.4488 159.793 53.4488C160.847 53.4488 161.269 53.2723 161.586 52.9547C161.691 52.8488 161.832 52.9194 161.832 53.0605V53.1664C161.832 53.2723 161.902 53.3076 161.973 53.3076H163.66C163.766 53.3076 163.801 53.237 163.801 53.1664V48.0136C163.836 45.9666 162.395 44.9784 159.968 44.9784ZM161.797 50.3077C161.797 51.3312 161.094 52.037 160.004 52.037C159.16 52.037 158.703 51.7194 158.703 51.0488C158.703 50.3077 159.16 50.0253 160.004 50.0253H161.656C161.762 50.0253 161.797 50.0959 161.797 50.1665V50.3077Z" fill="#2B3A67"></path><path d="M183.948 44.9784C183.245 44.9784 182.472 45.0137 181.733 45.1549C181.663 45.1902 181.593 45.2607 181.628 45.3313L181.803 46.5666C181.839 46.6372 181.874 46.7078 181.979 46.7078C182.647 46.6372 183.104 46.6019 183.772 46.6019C185.284 46.6019 185.777 47.0254 185.777 47.943V48.5077C185.777 48.6136 185.706 48.6489 185.636 48.6489H183.702C182.014 48.6489 180.995 49.4959 180.995 51.0135C180.995 52.4253 182.12 53.4488 183.772 53.4488C184.827 53.4488 185.249 53.2723 185.566 52.9547C185.671 52.8488 185.812 52.9194 185.812 53.0605V53.1664C185.812 53.2723 185.882 53.3076 185.952 53.3076H187.64C187.746 53.3076 187.781 53.237 187.781 53.1664V48.0136C187.851 45.9666 186.374 44.9784 183.948 44.9784ZM185.777 50.3077C185.777 51.3312 185.073 52.037 183.983 52.037C183.14 52.037 182.682 51.7194 182.682 51.0488C182.682 50.3077 183.14 50.0253 183.983 50.0253H185.636C185.741 50.0253 185.777 50.0959 185.777 50.1665V50.3077Z" fill="#2B3A67"></path><path d="M67.284 48.8959H64.4711V47.7665H67.284C67.8114 47.7665 68.2685 47.6959 68.5849 47.5194C68.9014 47.343 69.1475 47.0959 69.3233 46.8136C69.464 46.4959 69.5694 46.143 69.5694 45.7548C69.5694 45.4018 69.4991 45.0489 69.3233 44.7313C69.1827 44.4136 68.9365 44.1666 68.5849 43.9548C68.2685 43.7431 67.8114 43.6725 67.284 43.6725H64.8227V53.0605H63.4514V42.5431H67.3191C68.0927 42.5431 68.7959 42.6843 69.3233 42.9666C69.8859 43.249 70.2727 43.6372 70.5539 44.096C70.8352 44.5901 70.9759 45.1195 70.9759 45.7548C70.9759 46.4253 70.8352 46.99 70.5539 47.4841C70.2727 47.9782 69.8507 48.3312 69.3233 48.5782C68.7256 48.79 68.0575 48.8959 67.284 48.8959Z" fill="#2B3A67"></path><path d="M72.0658 49.2136V49.0371C72.0658 48.4724 72.1361 47.943 72.3119 47.4842C72.4877 46.9901 72.6987 46.5666 73.0151 46.2136C73.3316 45.8607 73.6832 45.5783 74.1403 45.3666C74.5622 45.1548 75.0545 45.049 75.6171 45.049C76.1445 45.049 76.6719 45.1548 77.0938 45.3666C77.5158 45.5783 77.9025 45.8254 78.219 46.2136C78.5354 46.5666 78.7816 46.9901 78.9222 47.4842C79.098 47.9783 79.1683 48.4724 79.1683 49.0371V49.2136C79.1683 49.7782 79.098 50.3076 78.9222 50.7665C78.7464 51.2606 78.5354 51.6841 78.219 52.037C77.9025 52.3899 77.5509 52.6723 77.0938 52.884C76.6719 53.0958 76.1796 53.1664 75.6171 53.1664C75.0545 53.1664 74.5974 53.0605 74.1403 52.884C73.7184 52.6723 73.3316 52.3899 73.0151 52.037C72.6987 51.6841 72.4877 51.2606 72.3119 50.7665C72.1361 50.2723 72.0658 49.7782 72.0658 49.2136ZM73.3668 49.0371V49.2136C73.3668 49.6018 73.4019 49.9547 73.5074 50.3076C73.6129 50.6606 73.7184 50.9429 73.9293 51.2253C74.1051 51.5076 74.3513 51.6841 74.6326 51.8605C74.9138 52.0017 75.2303 52.0723 75.6171 52.0723C76.0038 52.0723 76.2851 52.0017 76.5664 51.8605C76.8477 51.7194 77.0587 51.5076 77.2696 51.2253C77.4454 50.9429 77.5861 50.6606 77.6916 50.3076C77.797 49.9547 77.8322 49.6018 77.8322 49.2136V49.0371C77.8322 48.6489 77.797 48.2959 77.6916 47.943C77.5861 47.5901 77.4454 47.3077 77.2696 47.0254C77.0938 46.743 76.8477 46.5313 76.5664 46.3901C76.2851 46.2489 75.9687 46.143 75.6171 46.143C75.2654 46.143 74.949 46.2136 74.6677 46.3901C74.3864 46.5313 74.1755 46.743 73.9645 47.0254C73.7887 47.3077 73.648 47.5901 73.5426 47.943C73.4371 48.2959 73.3668 48.6489 73.3668 49.0371Z" fill="#2B3A67"></path><path d="M82.79 51.6134L84.7942 45.1901H85.6732L85.4974 46.4606L83.4581 52.9899H82.6142L82.79 51.6134ZM81.4188 45.1901L83.1416 51.684L83.2471 52.9899H82.3329L80.0826 45.1901H81.4188ZM87.5719 51.6487L89.1894 45.1901H90.5255L88.2752 52.9899H87.3961L87.5719 51.6487ZM85.8491 45.1901L87.8181 51.5076L88.029 52.9899H87.1852L85.0755 46.4253L84.8997 45.1548H85.8491V45.1901Z" fill="#2B3A67"></path><path d="M95.0964 53.1664C94.569 53.1664 94.0768 53.0605 93.6197 52.884C93.1977 52.7076 92.811 52.4252 92.4945 52.1076C92.1781 51.79 91.9319 51.3664 91.7561 50.9076C91.5803 50.4488 91.51 49.9547 91.51 49.39V49.0724C91.51 48.4371 91.6155 47.8724 91.7913 47.3783C91.9671 46.8842 92.2132 46.4607 92.5648 46.1077C92.8813 45.7548 93.2681 45.5078 93.6548 45.3313C94.0416 45.1548 94.4987 45.049 94.9206 45.049C95.4832 45.049 95.9403 45.1548 96.3622 45.3313C96.7842 45.5431 97.1006 45.7901 97.3467 46.143C97.5929 46.496 97.8038 46.8842 97.9093 47.343C98.05 47.8018 98.0851 48.2959 98.0851 48.8606V49.4606H92.2835V48.4018H96.7842V48.2959C96.7842 47.943 96.6787 47.6254 96.5732 47.2724C96.4677 46.9548 96.2567 46.6724 96.0106 46.4607C95.7293 46.2489 95.3777 46.143 94.9206 46.143C94.6042 46.143 94.3229 46.2136 94.0768 46.3548C93.8306 46.496 93.6197 46.6724 93.4087 46.9195C93.2329 47.1665 93.0923 47.4842 92.9868 47.8371C92.8813 48.19 92.8461 48.6136 92.8461 49.0724V49.39C92.8461 49.743 92.8813 50.0959 92.9868 50.4488C93.0923 50.7665 93.2329 51.0488 93.4439 51.2959C93.6548 51.5429 93.901 51.7194 94.1823 51.8605C94.4635 52.0017 94.8151 52.0723 95.1668 52.0723C95.6239 52.0723 96.0458 51.9664 96.3622 51.79C96.6787 51.5782 96.96 51.3311 97.2061 51.0135L98.0148 51.6488C97.839 51.8958 97.628 52.1429 97.3819 52.3899C97.1358 52.637 96.8193 52.8135 96.4326 52.9546C96.0809 53.0958 95.6238 53.1664 95.0964 53.1664Z" fill="#2B3A67"></path><path d="M101.039 46.4254V53.0252H99.7024V45.2254H101.003L101.039 46.4254ZM103.465 45.1548V46.3901C103.359 46.3548 103.254 46.3548 103.148 46.3548C103.043 46.3548 102.937 46.3548 102.832 46.3548C102.515 46.3548 102.269 46.3901 102.023 46.496C101.777 46.6018 101.601 46.743 101.425 46.9195C101.249 47.0959 101.144 47.3077 101.039 47.5548C100.933 47.8018 100.898 48.0489 100.863 48.3312L100.476 48.543C100.476 48.0841 100.511 47.6253 100.617 47.2018C100.722 46.7783 100.863 46.4254 101.039 46.1077C101.249 45.7901 101.496 45.543 101.777 45.3666C102.093 45.1901 102.445 45.0842 102.867 45.0842C102.972 45.0842 103.078 45.0842 103.183 45.1195C103.324 45.1195 103.429 45.1548 103.465 45.1548Z" fill="#2B3A67"></path><path d="M107.79 53.1664C107.262 53.1664 106.77 53.0605 106.313 52.884C105.891 52.7076 105.504 52.4252 105.188 52.1076C104.871 51.79 104.625 51.3664 104.484 50.9076C104.344 50.4488 104.238 49.9547 104.238 49.39V49.0724C104.238 48.4371 104.344 47.8724 104.52 47.3783C104.695 46.8842 104.942 46.4607 105.293 46.1077C105.61 45.7548 105.996 45.5078 106.383 45.3313C106.805 45.1548 107.227 45.049 107.649 45.049C108.211 45.049 108.704 45.1548 109.091 45.3313C109.512 45.5431 109.829 45.7901 110.075 46.143C110.321 46.496 110.532 46.8842 110.638 47.343C110.778 47.8018 110.813 48.2959 110.813 48.8606V49.4606H105.012V48.4018H109.512V48.2959C109.512 47.943 109.407 47.6254 109.301 47.2724C109.196 46.9548 108.985 46.6724 108.739 46.4607C108.458 46.2489 108.106 46.143 107.649 46.143C107.332 46.143 107.086 46.2136 106.805 46.3548C106.559 46.496 106.348 46.6724 106.137 46.9195C105.961 47.1665 105.821 47.4842 105.715 47.8371C105.61 48.19 105.574 48.6136 105.574 49.0724V49.39C105.574 49.743 105.61 50.0959 105.715 50.4488C105.821 50.7665 105.961 51.0488 106.172 51.2959C106.383 51.5429 106.629 51.7194 106.911 51.8605C107.192 52.0017 107.543 52.0723 107.895 52.0723C108.352 52.0723 108.774 51.9664 109.091 51.79C109.407 51.6135 109.688 51.3311 109.934 51.0135L110.743 51.6488C110.567 51.8958 110.356 52.1429 110.11 52.3899C109.864 52.637 109.548 52.8135 109.161 52.9546C108.739 53.0958 108.282 53.1664 107.79 53.1664Z" fill="#2B3A67"></path><path d="M117.248 51.5076V41.9431H118.584V53.0252H117.353L117.248 51.5076ZM112.009 49.1782V49.0371C112.009 48.4371 112.079 47.9077 112.22 47.4136C112.36 46.9195 112.571 46.4959 112.853 46.143C113.134 45.7901 113.45 45.5077 113.837 45.3313C114.224 45.1195 114.646 45.0489 115.103 45.0489C115.595 45.0489 116.017 45.1195 116.369 45.296C116.756 45.4724 117.037 45.7195 117.318 46.0371C117.564 46.3548 117.775 46.743 117.916 47.2018C118.056 47.6606 118.162 48.19 118.232 48.7547V49.4253C118.197 49.99 118.092 50.5194 117.916 50.9782C117.775 51.437 117.564 51.8252 117.318 52.1429C117.072 52.4605 116.756 52.7076 116.369 52.884C116.017 53.0605 115.56 53.1311 115.068 53.1311C114.611 53.1311 114.189 53.0252 113.802 52.8487C113.415 52.637 113.099 52.3899 112.817 52.0017C112.536 51.6488 112.325 51.2252 112.185 50.7311C112.079 50.3076 112.009 49.7782 112.009 49.1782ZM113.38 49.0371V49.1782C113.38 49.5665 113.415 49.9194 113.486 50.2723C113.556 50.6253 113.697 50.9076 113.872 51.1899C114.048 51.437 114.259 51.6488 114.505 51.7899C114.751 51.9311 115.068 52.0017 115.419 52.0017C115.841 52.0017 116.228 51.8958 116.509 51.7193C116.791 51.5429 117.037 51.2958 117.213 50.9782C117.388 50.6605 117.529 50.3429 117.599 49.99V48.2606C117.529 47.9783 117.459 47.7312 117.353 47.4842C117.248 47.2371 117.107 47.0253 116.931 46.8136C116.756 46.6018 116.545 46.4606 116.298 46.3548C116.052 46.2489 115.771 46.1783 115.419 46.1783C115.068 46.1783 114.751 46.2489 114.47 46.4254C114.224 46.5665 114.013 46.7783 113.837 47.0606C113.661 47.3077 113.556 47.6253 113.45 47.9783C113.415 48.2959 113.345 48.6488 113.38 49.0371Z" fill="#2B3A67"></path><path d="M124.315 41.9431H125.651V51.5076L125.546 53.0252H124.315V41.9431ZM130.925 49.0371V49.1782C130.925 49.7429 130.855 50.2723 130.715 50.7664C130.574 51.2605 130.398 51.684 130.117 52.037C129.871 52.3899 129.554 52.6723 129.167 52.884C128.781 53.0958 128.359 53.1664 127.866 53.1664C127.374 53.1664 126.952 53.0958 126.565 52.9193C126.214 52.7428 125.897 52.4958 125.616 52.1782C125.37 51.8605 125.159 51.4723 125.018 51.0135C124.878 50.5547 124.772 50.0253 124.702 49.4606V48.79C124.772 48.2253 124.878 47.6959 125.018 47.2371C125.159 46.7783 125.37 46.3901 125.616 46.0724C125.862 45.7548 126.179 45.5077 126.565 45.3313C126.952 45.1548 127.374 45.0842 127.866 45.0842C128.359 45.0842 128.781 45.1901 129.167 45.3666C129.554 45.543 129.871 45.8254 130.117 46.1783C130.363 46.5312 130.574 46.9548 130.715 47.4489C130.855 47.9077 130.925 48.4371 130.925 49.0371ZM129.589 49.2135V49.0723C129.589 48.6841 129.554 48.3312 129.484 47.9783C129.414 47.6253 129.308 47.343 129.132 47.0606C128.956 46.7783 128.781 46.6018 128.499 46.4254C128.253 46.2842 127.937 46.1783 127.55 46.1783C127.198 46.1783 126.917 46.2489 126.671 46.3548C126.425 46.4606 126.214 46.6371 126.038 46.8136C125.862 46.99 125.722 47.2371 125.616 47.4842C125.511 47.7312 125.44 47.9783 125.37 48.2606V49.99C125.44 50.3076 125.581 50.6605 125.757 50.9782C125.933 51.2958 126.179 51.5429 126.46 51.7546C126.776 51.9664 127.128 52.037 127.55 52.037C127.902 52.037 128.218 51.9664 128.464 51.8252C128.71 51.684 128.921 51.4723 129.097 51.2252C129.273 50.9782 129.378 50.6605 129.449 50.3076C129.519 49.9547 129.589 49.5665 129.589 49.2135Z" fill="#2B3A67"></path><path d="M134.688 52.2134L136.868 45.1901H138.274L135.145 54.2251C135.074 54.4369 134.969 54.6134 134.863 54.8604C134.758 55.0722 134.582 55.2839 134.406 55.4957C134.231 55.7075 134.02 55.8486 133.738 55.9898C133.492 56.131 133.176 56.2016 132.824 56.2016C132.719 56.2016 132.578 56.2016 132.402 56.1663C132.226 56.131 132.121 56.131 132.051 56.0957V55.0016C132.086 55.0016 132.156 55.0016 132.226 55.0016C132.297 55.0016 132.367 55.0016 132.402 55.0016C132.719 55.0016 132.965 54.9663 133.176 54.8957C133.387 54.8251 133.563 54.6839 133.703 54.5075C133.844 54.331 133.984 54.084 134.09 53.7663L134.688 52.2134ZM133.105 45.1901L135.145 51.2605L135.496 52.6722L134.547 53.1663L131.699 45.1901H133.105Z" fill="#2B3A67"></path><path d="M45.3395 13.05L25.4941 32.97L5.7085 12.87C6.63501 10.95 7.83052 9.20998 9.26513 7.67998C10.0721 6.77998 10.9687 5.96998 11.9251 5.21998C12.1642 5.06998 12.4332 5.06998 12.6723 5.27998L25.1056 17.82C25.3447 18.06 25.6734 18.06 25.9125 17.82L38.2561 5.27998C38.4056 5.03998 38.7642 5.03998 39.0033 5.21998C39.7206 5.78998 40.4379 6.38998 41.0955 7.04998C42.7991 8.75998 44.2635 10.8 45.3395 13.05Z" fill="#2B3A67"></path><path d="M45.3395 31.83L25.4941 51.75L5.7085 31.65C6.63501 29.73 7.83052 27.99 9.26513 26.46C10.0721 25.56 10.9687 24.75 11.9251 24C12.1642 23.85 12.4332 23.85 12.6723 24.06L25.1056 36.6C25.3447 36.84 25.6734 36.84 25.9125 36.6L38.2561 24.03C38.4056 23.79 38.7642 23.79 39.0033 23.97C39.7206 24.54 40.4379 25.14 41.0955 25.8C42.7991 27.54 44.2635 29.58 45.3395 31.83Z" fill="#2B3A67"></path></svg>